<svg width="45" height="45" viewBox="0 0 45 45" fill="none" xmlns="http://www.w3.org/2000/svg">
<path fill-rule="evenodd" clip-rule="evenodd" d="M36 8H9.33333C7.5 8 6 9.5 6 11.3333V34.6667C6 36.5 7.5 38 9.33333 38H36C37.8333 38 39.3333 36.5 39.3333 34.6667V11.3333C39.3333 9.5 37.8333 8 36 8ZM36 34.6667H9.33333V11.3333H36V34.6667Z" fill="white"/>
<path fill-rule="evenodd" clip-rule="evenodd" d="M35.0166 20.3667L32.65 18L27.3666 23.2833L25.0166 20.9167L22.6666 23.2667L27.3666 28L35.0166 20.3667Z" fill="white"/>
<path d="M19.3333 14.6666H11V18H19.3333V14.6666Z" fill="white"/>
<path d="M19.3333 21.3334H11V24.6667H19.3333V21.3334Z" fill="white"/>
<path d="M19.3333 28H11V31.3333H19.3333V28Z" fill="white"/>
</svg>
